Coordinates
version=1
nRows=8
nColumns=36
inDegrees=yes

Units are S.I. units (second, meters, Newtons, ...)
If the header above contains a line with 'inDegrees', this indicates whether rotational values are in degrees (yes) or radians (no).

endheader
time	pelvis_tilt	pelvis_list	pelvis_rotation	pelvis_tx	pelvis_ty	pelvis_tz	hip_flexion_r	hip_adduction_r	hip_rotation_r	knee_angle_r	knee_angle_r_beta	ankle_angle_r	subtalar_angle_r	mtp_angle_r	hip_flexion_l	hip_adduction_l	hip_rotation_l	knee_angle_l	knee_angle_l_beta	ankle_angle_l	subtalar_angle_l	mtp_angle_l	lumbar_extension	lumbar_bending	lumbar_rotation	arm_flex_r	arm_add_r	arm_rot_r	elbow_flex_r	pro_sup_r	arm_flex_l	arm_add_l	arm_rot_l	elbow_flex_l	pro_sup_l
      3.53333330	    -16.41646897	     -4.04485979	      9.32958397	      0.98813967	      0.91870404	      0.02225497	     32.62257941	     -8.50234666	     -8.34009188	     30.68468445	      0.53554877	     16.41103500	     -1.18313299	     -7.49999987	     38.81153500	     -8.04356499	    -12.47508397	     38.55727400	      0.67295138	     13.57507511	     -0.99462408	     -7.49999987	    -11.02687493	     -0.03427666	      2.00824817	     44.77297523	     -2.19445864	     26.62907923	    139.16849461	     94.87915707	    224.96051042	   -173.51346595	    202.05718470	    145.49155186	     94.59083780
      3.55000000	    -16.24333525	     -4.10568231	      9.66455398	      0.99265675	      0.92867348	      0.02376319	     30.11249702	     -7.97814816	     -8.47966327	     26.47491258	      0.46207439	     14.37689433	     -0.89969798	     -7.49999987	     36.42453679	     -7.39723619	    -12.06636042	     34.36158882	      0.59972286	     12.03048453	     -0.29453312	     -7.49999987	     -9.83636019	     -0.13818522	      1.90968561	     45.68137469	     -1.38527986	     27.06006916	    139.41442216	     95.39814364	    225.41270179	   -173.14544604	    202.07884388	    145.31524535	     95.07834566
      3.56666670	    -16.35216538	     -4.07836272	      9.38820246	      0.99348853	      0.93483010	      0.01742836	     28.38543709	     -7.63548894	     -8.29336162	     22.96669788	      0.40084450	     12.43470479	     -0.47001744	     -7.49999987	     34.42174602	     -6.83868327	    -11.96451498	     30.67972215	      0.53546217	     11.01843942	      0.42157937	     -7.49999987	     -8.28696537	     -0.23051467	      2.06114117	     46.51716700	     -0.89874571	     27.41522345	    139.47663635	     95.51664534	    224.85669465	   -173.16265781	    202.12269350	    145.07619632	     95.18941435
      3.58333330	    -15.75171823	     -3.80113091	      8.94560883	      0.99814302	      0.94004432	      0.01414110	     25.70731524	     -7.27955776	     -7.48641866	     19.16307682	      0.33445879	     10.60883539	     -0.76627570	     -7.49999987	     31.80312045	     -6.22077579	    -11.97269235	     27.49589915	      0.47989397	     10.32242625	      0.52790864	     -7.49999987	     -7.63805692	     -0.35027728	      2.33602067	     47.90077300	     -0.47604797	     28.16807919	    139.14297143	     92.13523090	    224.32763895	   -172.90706123	    201.95645166	    145.53914770	     91.90563341
      3.60000000	    -15.37739906	     -3.32318933	      8.38966039	      1.00702750	      0.94556739	      0.00899226	     23.13372400	     -7.37163300	     -6.99291157	     15.44576238	      0.26957941	      8.69500509	     -0.32445634	     -7.49999987	     28.66352347	     -5.19156714	    -11.98941315	     23.36259377	      0.40775418	      9.42059903	      0.62629675	     -7.49999987	     -6.47714058	     -0.62787557	      2.67992678	     48.15601108	     -0.27136968	     28.61388036	    139.02446202	     92.59394421	    223.56279209	   -173.05483778	    201.46081933	    145.81035532	     92.41665225
      3.61666670	    -15.21506923	     -2.93950934	      7.96741755	      1.01154575	      0.94773744	      0.00595555	     20.99226922	     -7.50478612	     -6.64471097	     12.21192196	      0.21313825	      7.56680492	      0.17305565	     -7.49999987	     26.04988003	     -4.16656875	    -11.90244622	     19.77077339	      0.34506509	      9.01867567	      0.51107684	     -7.49999987	     -5.03724783	     -0.78799256	      2.75011662	     48.72251476	      0.30444523	     29.60028342	    138.91437440	     94.41294795	    222.60886496	   -173.05007093	    201.09528531	    146.30331304	     94.88990860
      3.63333330	    -14.44598081	     -2.67413175	      8.12122179	      1.01948305	      0.95343291	      0.00093992	     18.04180755	     -7.64839715	     -6.71583123	      9.14882670	      0.15967715	      6.25922383	      0.64726498	     -7.49999987	     22.97923032	     -3.22892142	    -11.48011456	     16.44318936	      0.28698779	      8.52443263	      0.51105698	     -7.49999987	     -4.14228602	     -0.59719640	      3.07698677	     49.40822465	      0.60712440	     31.13693524	    138.63327458	     91.40008842	    221.51898208	   -173.29873074	    201.32485785	    146.49109277	     91.80613122
      3.65000000	    -14.33810771	     -2.62827086	      8.27569767	      1.02297484	      0.95271732	      0.00335177	     15.98350477	     -7.48153033	     -6.59819523	      6.24697402	      0.10903026	      5.38691836	      1.08040035	     -7.49999987	     21.21627435	     -2.61652328	    -11.08398496	     14.06940992	      0.24555753	      8.04595455	      0.43187167	     -7.49999987	     -2.57027911	     -0.51320485	      3.86854609	     49.49595026	      0.81330620	     31.78141932	    138.68915602	     91.46889451	    220.78271014	   -173.65241373	    201.67138553	    146.47261144	     91.94380686
